<svg width="16" height="16" viewBox="0 0 16 16" fill="none" xmlns="http://www.w3.org/2000/svg">
<path fill-rule="evenodd" clip-rule="evenodd" d="M8.01734 1.33325C4.34468 1.33325 1.36801 4.30992 1.36801 7.98259C1.36801 10.9199 3.27268 13.4126 5.91535 14.2926C6.24801 14.3526 6.36801 14.1479 6.36801 13.9719C6.36801 13.8139 6.36268 13.3953 6.36068 12.8413C4.51068 13.2426 4.12001 11.9493 4.12001 11.9493C3.81868 11.1813 3.38201 10.9766 3.38201 10.9766C2.77868 10.5639 3.42801 10.5733 3.42801 10.5733C4.09601 10.6199 4.44601 11.2586 4.44601 11.2586C5.03935 12.2746 6.00335 11.9813 6.38068 11.8113C6.44135 11.3813 6.61468 11.0879 6.80401 10.9219C5.32801 10.7546 3.77601 10.1839 3.77601 7.63525C3.77601 6.91059 4.03535 6.31592 4.45868 5.85192C4.39135 5.68325 4.16135 5.00659 4.52468 4.09192C4.52468 4.09192 5.08268 3.91259 6.35268 4.77259C6.89507 4.62503 7.45457 4.54972 8.01668 4.54859C8.5788 4.5495 9.13833 4.62482 9.68068 4.77259C10.9513 3.91192 11.5087 4.09192 11.5087 4.09192C11.872 5.00659 11.644 5.68325 11.5747 5.85192C12.0013 6.31592 12.2573 6.90992 12.2573 7.63525C12.2573 10.1906 10.704 10.7519 9.22268 10.9166C9.45934 11.1219 9.67268 11.5273 9.67268 12.1473C9.67268 13.0366 9.66468 13.7539 9.66468 13.9719C9.66468 14.1499 9.78335 14.3566 10.1227 14.2913C12.764 13.4099 14.6667 10.9193 14.6667 7.98259C14.6667 4.30992 11.69 1.33325 8.01734 1.33325Z" fill="#2B2B2B"/>
</svg>
