<svg width="16" height="16" viewBox="0 0 16 16" fill="none" xmlns="http://www.w3.org/2000/svg">
<g clip-path="url(#clip0_22_18)">
<path d="M8.98867 0.000113984C8.86787 0.00397603 8.74904 0.0317745 8.63906 0.0818983C8.52909 0.132022 8.43016 0.203474 8.348 0.292114L4.744 4.15078L2.17467 6.90145C1.80114 7.30038 1.52524 7.78052 1.36867 8.30412C1.33488 8.41657 1.30707 8.53073 1.28533 8.64611C1.18487 9.1678 1.19897 9.70509 1.32667 10.2208C1.38377 10.4533 1.46164 10.6802 1.55933 10.8988C1.76261 11.3527 2.05013 11.764 2.40667 12.1108L5.258 14.9061L5.284 14.9314C6.78267 16.3748 9.18533 16.3534 10.6593 14.8821L12.2567 13.2874C12.6167 12.9274 12.6167 12.3448 12.2587 11.9841C12.0864 11.8114 11.8526 11.7142 11.6087 11.7139C11.3648 11.7135 11.1308 11.81 10.958 11.9821L9.36067 13.5768C8.98832 13.9445 8.48743 14.1528 7.96413 14.1575C7.44084 14.1623 6.93626 13.9631 6.55733 13.6021L6.544 13.5894L3.69333 10.7941C3.25867 10.3674 3.04533 9.81478 3.06133 9.28545C3.06459 9.16807 3.07933 9.05129 3.10533 8.93678C3.17249 8.64641 3.3148 8.3788 3.518 8.16078L6.08667 5.40945C6.792 4.65345 8.22267 4.56278 9.04 5.22411L11.374 7.11145C11.7693 7.43145 12.348 7.36945 12.6673 6.97345C12.8204 6.78322 12.8918 6.54007 12.866 6.29727C12.8401 6.05447 12.7191 5.83183 12.5293 5.67811L10.196 3.79078C9.66267 3.35945 9.01867 3.09411 8.34667 2.98945L9.69 1.55078C9.81383 1.41764 9.89556 1.25087 9.92492 1.07143C9.95429 0.891989 9.92998 0.707872 9.85505 0.542201C9.78012 0.37653 9.65791 0.236691 9.50377 0.140246C9.34962 0.0438006 9.17042 -0.00495071 8.98867 0.000113984ZM7.078 8.54345C6.95707 8.54345 6.83733 8.56729 6.72562 8.61361C6.61391 8.65992 6.51244 8.72781 6.42699 8.81338C6.34154 8.89895 6.2738 9.00053 6.22765 9.1123C6.18149 9.22408 6.15782 9.34385 6.158 9.46478C6.15782 9.58571 6.18149 9.70549 6.22765 9.81726C6.2738 9.92903 6.34154 10.0306 6.42699 10.1162C6.51244 10.2018 6.61391 10.2696 6.72562 10.316C6.83733 10.3623 6.95707 10.3861 7.078 10.3861H13.86C13.9809 10.3861 14.1007 10.3623 14.2124 10.316C14.3241 10.2696 14.4256 10.2018 14.511 10.1162C14.5965 10.0306 14.6642 9.92903 14.7104 9.81726C14.7565 9.70549 14.7802 9.58571 14.78 9.46478C14.7802 9.34385 14.7565 9.22408 14.7104 9.1123C14.6642 9.00053 14.5965 8.89895 14.511 8.81338C14.4256 8.72781 14.3241 8.65992 14.2124 8.61361C14.1007 8.56729 13.9809 8.54345 13.86 8.54345H7.078Z" fill="#2B2B2B"/>
</g>
<defs>
<clipPath id="clip0_22_18">
<rect width="16" height="16" fill="white"/>
</clipPath>
</defs>
</svg>
