<svg width="16" height="16" viewBox="0 0 16 16" fill="none" xmlns="http://www.w3.org/2000/svg">
<path d="M13.3333 2H2.66667C2.48986 2 2.32029 2.07024 2.19526 2.19526C2.07024 2.32029 2 2.48986 2 2.66667V13.3333C2 13.5101 2.07024 13.6797 2.19526 13.8047C2.32029 13.9298 2.48986 14 2.66667 14H13.3333C13.5101 14 13.6797 13.9298 13.8047 13.8047C13.9298 13.6797 14 13.5101 14 13.3333V2.66667C14 2.48986 13.9298 2.32029 13.8047 2.19526C13.6797 2.07024 13.5101 2 13.3333 2ZM5.55933 12.2247H3.778V6.498H5.55933V12.2247ZM4.66867 5.716C4.39496 5.716 4.13247 5.60727 3.93893 5.41373C3.74539 5.2202 3.63667 4.9577 3.63667 4.684C3.63667 4.4103 3.74539 4.1478 3.93893 3.95427C4.13247 3.76073 4.39496 3.652 4.66867 3.652C4.94237 3.652 5.20486 3.76073 5.3984 3.95427C5.59194 4.1478 5.70067 4.4103 5.70067 4.684C5.70067 4.9577 5.59194 5.2202 5.3984 5.41373C5.20486 5.60727 4.94237 5.716 4.66867 5.716ZM12.2253 12.2247H10.446V9.44C10.446 8.776 10.434 7.922 9.52067 7.922C8.594 7.922 8.45333 8.646 8.45333 9.39333V12.2253H6.67533V6.49867H8.382V7.28133H8.40667C8.64333 6.83133 9.22467 6.35667 10.0893 6.35667C11.892 6.35667 12.2247 7.542 12.2247 9.08467L12.2253 12.2247Z" fill="#2B2B2B"/>
</svg>
