<svg width="52" height="52" viewBox="0 0 52 52" fill="none" xmlns="http://www.w3.org/2000/svg">
<path d="M39.25 16.76C38.6926 16.2006 38.0302 15.7568 37.3009 15.454C36.5716 15.1511 35.7897 14.9952 35 14.9952C34.2103 14.9952 33.4284 15.1511 32.6991 15.454C31.9698 15.7568 31.3074 16.2006 30.75 16.76L32.17 18.18C32.5423 17.8077 32.9843 17.5124 33.4707 17.3109C33.9571 17.1094 34.4785 17.0057 35.005 17.0057C35.5315 17.0057 36.0529 17.1094 36.5393 17.3109C37.0257 17.5124 37.4677 17.8077 37.84 18.18C38.2123 18.5523 38.5076 18.9942 38.7091 19.4807C38.9106 19.9671 39.0143 20.4885 39.0143 21.015C39.0143 21.5415 38.9106 22.0628 38.7091 22.5493C38.5076 23.0357 38.2123 23.4777 37.84 23.85L29.84 31.85C29.0894 32.6019 28.0709 33.0248 27.0085 33.0257C25.9461 33.0267 24.9269 32.6055 24.175 31.855C23.4231 31.1044 23.0002 30.0859 22.9992 29.0235C22.9983 27.9611 23.4194 26.9419 24.17 26.19L25.58 24.77L24.17 23.35L22.75 24.77C22.1906 25.3274 21.7468 25.9897 21.444 26.7191C21.1411 27.4484 20.9853 28.2303 20.9853 29.02C20.9853 29.8097 21.1411 30.5916 21.444 31.3209C21.7468 32.0502 22.1906 32.7125 22.75 33.27C23.8815 34.387 25.4101 35.0092 27 35C27.7927 35.0032 28.5782 34.8494 29.3111 34.5473C30.044 34.2452 30.7098 33.8009 31.27 33.24L39.27 25.24C40.3909 24.1123 41.0185 22.5858 41.0147 20.9958C41.011 19.4058 40.3763 17.8823 39.25 16.76Z" fill="black"/>
<path d="M14.19 34.82C13.8166 34.4483 13.5203 34.0066 13.3181 33.52C13.1159 33.0335 13.0118 32.5119 13.0118 31.985C13.0118 31.4582 13.1159 30.9365 13.3181 30.45C13.5203 29.9635 13.8166 29.5217 14.19 29.15L22.19 21.15C22.5617 20.7766 23.0035 20.4803 23.49 20.2781C23.9765 20.0759 24.4981 19.9718 25.025 19.9718C25.5519 19.9718 26.0735 20.0759 26.56 20.2781C27.0465 20.4803 27.4883 20.7766 27.86 21.15C28.2311 21.5246 28.5231 21.9699 28.719 22.4594C28.9148 22.949 29.0103 23.4728 29 24C29.0031 24.5288 28.9012 25.053 28.7004 25.5422C28.4996 26.0314 28.2037 26.4759 27.83 26.85L25.71 29L27.13 30.42L29.25 28.3C30.3785 27.1715 31.0125 25.6409 31.0125 24.045C31.0125 22.4491 30.3785 20.9185 29.25 19.79C28.1215 18.6615 26.5909 18.0275 24.995 18.0275C23.3991 18.0275 21.8685 18.6615 20.74 19.79L12.74 27.79C12.1791 28.3476 11.734 29.0106 11.4303 29.7408C11.1266 30.4711 10.9702 31.2541 10.9702 32.045C10.9702 32.8359 11.1266 33.619 11.4303 34.3492C11.734 35.0794 12.1791 35.7424 12.74 36.3C13.8788 37.4085 15.4109 38.0199 17 38C18.6031 38.0015 20.1417 37.3688 21.28 36.24L19.86 34.82C19.4883 35.1934 19.0465 35.4897 18.56 35.6919C18.0735 35.8941 17.5519 35.9982 17.025 35.9982C16.4981 35.9982 15.9765 35.8941 15.49 35.6919C15.0035 35.4897 14.5617 35.1934 14.19 34.82Z" fill="black"/>
</svg>
